<svg id="Layer_1" data-name="Layer 1" xmlns="http://www.w3.org/2000/svg" viewBox="0 0 24 24"><defs><style>.cls-1{fill:#bbb;}</style></defs><title>cacique</title><path class="cls-1" d="M3.21,20.63a25.35,25.35,0,0,1,2.11-3.24,11,11,0,0,1,1.56-1.48c.42,0,.88-.05,1.37-.12a13.45,13.45,0,0,0,1.4-.27h0A10.92,10.92,0,0,0,16.56,9l.12-.19a6.89,6.89,0,0,0-.93.1A5.94,5.94,0,0,0,14,9.6h0a9.48,9.48,0,0,1,3.12-1.66l.05,0,.08-.16a13.2,13.2,0,0,1,3.53-4.39h0l-4.7,1c-1.2.31-2.49.69-3.84,1.18-.82.3-1.6.61-2.33.93a9,9,0,0,0-3.87,3.73,8.85,8.85,0,0,0-1,4.87H5a15.8,15.8,0,0,1,7.1-6.9,18.07,18.07,0,0,0-3.61,2.89,17.75,17.75,0,0,0-3.16,4.51A11.92,11.92,0,0,0,4,18,7.44,7.44,0,0,0,3.21,20.63Z"/></svg>